#!OML:ASF H:\Pregnant\Project 1\Capture day 1\Session 1\femalepreg.ASF
:FULLY-SPECIFIED
:DEGREES
566
root 15.6673 15.916 -21.7526 -330.317 19.8994 3.44613
lowerback -15.3195 1.09692 3.02533
upperback -6.20612 1.09648 -0.19518
thorax 2.06688 0.535459 -1.72846
lowerneck -9.89045 -12.8139 -5.6531
upperneck 11.7942 -17.0897 4.44552
head 6.04584 -8.25412 0.781032
rclavicle 4.08502e-014 7.95139e-015
rhumerus -31.3157 37.8419 -103.043
rradius 76.3889
rwrist -1.23474
rhand -11.098 -9.35657
rfingers 7.12502
rthumb 14.9261 -38.7988
lclavicle 4.08502e-014 7.95139e-015
lhumerus -58.221 -6.24983 80.2133
lradius 20.3042
lwrist 31.0227
lhand -20.589 -4.37675
lfingers 7.12502
lthumb 5.77114 25.5247
rfemur -27.9407 29.1833 15.8515
rtibia 34.7496
rfoot -20.0312 -0.0185745
rtoes 0.821225
lfemur -58.1701 -11.6694 -4.87517
ltibia 25.9124
lfoot -9.72475 6.95376
ltoes -33.4554
567
root 15.752 15.8942 -21.6057 -330.39 19.1651 3.25195
lowerback -15.4401 1.05486 2.64662
upperback -6.15442 1.09481 -0.408487
thorax 2.18444 0.538168 -1.73642
lowerneck -10.0612 -12.7366 -5.90697
upperneck 12.0418 -17.0017 4.76505
head 6.19985 -8.19048 0.897225
rclavicle 4.46272e-014 1.59028e-015
rhumerus -31.6817 37.8409 -102.944
rradius 77.3227
rwrist -0.455034
rhand -10.7946 -7.45062
rfingers 7.12502
rthumb 15.2183 -36.8709
lclavicle 4.46272e-014 1.59028e-015
lhumerus -58.4756 -6.45202 80.04
lradius 20.5318
lwrist 32.3139
lhand -20.6304 -3.9833
lfingers 7.12502
lthumb 5.73123 25.9192
rfemur -27.3203 29.4848 15.9443
rtibia 34.6873
rfoot -19.9029 0.5397
rtoes 0.979224
lfemur -58.1873 -11.694 -4.54637
ltibia 25.5179
lfoot -9.94339 7.24984
ltoes -33.4165
568
root 15.8354 15.8678 -21.4577 -330.486 18.485 3.11004
lowerback -15.5316 0.982489 2.21235
upperback -6.09611 1.06423 -0.63748
thorax 2.29151 0.526513 -1.73474
lowerneck -10.2262 -12.6434 -6.24251
upperneck 12.3362 -16.9002 5.19275
head 6.38403 -8.11459 1.05796
rclavicle 2.77305e-014 2.62396e-014
rhumerus -32.0825 37.7697 -102.84
rradius 78.2236
rwrist -0.602916
rhand -10.5413 -6.00606
rfingers 7.12502
rthumb 15.4623 -35.4077
lclavicle 2.77305e-014 2.62396e-014
lhumerus -58.6265 -6.63536 79.818
lradius 20.6773
lwrist 33.6282
lhand -20.6104 -3.6198
lfingers 7.12502
lthumb 5.75048 26.2822
rfemur -26.7139 29.7192 16.0445
rtibia 34.7822
rfoot -19.7875 1.13789
rtoes 1.2079
lfemur -58.0816 -11.5446 -4.60316
ltibia 25.2339
lfoot -10.0713 7.32968
ltoes -33.5137
569
root 15.9177 15.8373 -21.3084 -330.611 17.8618 3.0065
lowerback -15.6034 0.880903 1.73145
upperback -6.02344 1.00416 -0.873958
thorax 2.40131 0.500288 -1.71989
lowerneck -10.4271 -12.541 -6.57405
upperneck 12.685 -16.7934 5.63946
head 6.59265 -8.03195 1.22256
rclavicle 3.28492e-014 3.97569e-015
rhumerus -32.5136 37.6416 -102.729
rradius 79.0718
rwrist -1.46245
rhand -10.2964 -5.19992
rfingers 7.12502
rthumb 15.6982 -34.5832
lclavicle 3.28492e-014 3.97569e-015
lhumerus -58.6549 -6.79541 79.5618
lradius 20.7222
lwrist 34.9291
lhand -20.5701 -3.34943
lfingers 7.12502
lthumb 5.7894 26.5515
rfemur -26.1218 29.8516 16.1701
rtibia 35.0287
rfoot -19.6696 1.82073
rtoes 1.43362
lfemur -57.8596 -11.2146 -5.03233
ltibia 25.0416
lfoot -10.0956 7.07924
ltoes -34.0274
570
root 15.9989 15.8034 -21.1565 -330.787 17.2965 2.91406
lowerback -15.6549 0.760084 1.22749
upperback -5.88343 0.923403 -1.10559
thorax 2.57032 0.464114 -1.69052
lowerneck -10.8832 -12.4571 -6.88362
upperneck 13.1508 -16.7089 6.07586
head 6.88077 -7.94955 1.36122
rclavicle 1.92324e-014 -1.13307e-014
rhumerus -32.8395 37.4577 -102.509
rradius 79.8345
rwrist -2.81951
rhand -10.0769 -5.04634
rfingers 7.12502
rthumb 15.9096 -34.4128
lclavicle 1.92324e-014 -1.13307e-014
lhumerus -58.4427 -6.92024 79.2889
lradius 20.6414
lwrist 36.174
lhand -20.5105 -3.50111
lfingers 7.12502
lthumb 5.84699 26.3982
rfemur -25.509 29.9056 16.3631
rtibia 35.4091
rfoot -19.529 2.55227
rtoes 1.59336
lfemur -57.5274 -10.76 -5.71364
ltibia 24.9596
lfoot -10.0101 6.43109
ltoes -34.8761
571
root 16.0791 15.7655 -21.0019 -331.005 16.781 2.80842
lowerback -15.7013 0.623677 0.715618
upperback -5.72088 0.825534 -1.33617
thorax 2.75993 0.418774 -1.65893
lowerneck -11.4009 -12.3724 -7.10233
upperneck 13.6608 -16.6333 6.4716
head 7.18408 -7.86612 1.47224
rclavicle -3.26007e-014 -2.51463e-014
rhumerus -33.1751 37.1866 -102.277
rradius 80.4721
rwrist -4.44171
rhand -10.0013 -5.46251
rfingers 7.12502
rthumb 15.9824 -34.8232
lclavicle -3.26007e-014 -2.51463e-014
lhumerus -58.1055 -7.06509 79.022
lradius 20.4762
lwrist 37.3717
lhand -20.4675 -4.05171
lfingers 7.12502
lthumb 5.88845 25.8465
rfemur -24.8891 29.8492 16.6318
rtibia 35.9046
rfoot -19.3383 3.38153
rtoes 1.7581
lfemur -57.1365 -10.231 -6.52491
ltibia 25.018
lfoot -9.71677 5.2989
ltoes -36.0225
572
root 16.1587 15.7244 -20.8449 -331.257 16.31 2.67246
lowerback -15.7354 0.473874 0.222411
upperback -5.55668 0.709583 -1.56562
thorax 2.94484 0.363302 -1.64062
lowerneck -11.9683 -12.2818 -7.22327
upperneck 14.2203 -16.5615 6.8146
head 7.50089 -7.77962 1.55204
rclavicle -6.65603e-014 -2.85132e-015
rhumerus -33.5484 36.836 -102.062
rradius 80.9612
rwrist -6.22547
rhand -10.0741 -6.30471
rfingers 7.12502
rthumb 15.9123 -35.671
lclavicle -6.65603e-014 -2.85132e-015
lhumerus -57.7033 -7.2569 78.7819
lradius 20.263
lwrist 38.5073
lhand -20.5066 -4.56362
lfingers 7.12502
lthumb 5.85074 25.3356
rfemur -24.2769 29.6568 16.9807
rtibia 36.5009
rfoot -19.0627 4.31541
rtoes 1.85794
lfemur -56.7242 -9.70526 -7.32168
ltibia 25.2691
lfoot -9.19681 3.67435
ltoes -37.0505
573
root 16.2379 15.6816 -20.6863 -331.537 15.8817 2.4951
lowerback -15.7702 0.316627 -0.243404
upperback -5.37413 0.581589 -1.78297
thorax 3.14998 0.300894 -1.62794
lowerneck -12.6058 -12.2005 -7.25578
upperneck 14.8047 -16.5121 7.11049
head 7.82995 -7.69831 1.60018
rclavicle -5.50137e-014 -7.45443e-015
rhumerus -33.9069 36.4258 -101.81
rradius 81.2972
rwrist -8.1847
rhand -10.3519 -7.44058
rfingers 7.12502
rthumb 15.6448 -36.828
lclavicle -5.50137e-014 -7.45443e-015
lhumerus -57.2106 -7.50408 78.599
lradius 20.0098
lwrist 39.5195
lhand -20.7575 -4.80105
lfingers 7.12502
lthumb 5.60845 25.1047
rfemur -23.6939 29.3424 17.4044
rtibia 37.2024
rfoot -18.6551 5.33593
rtoes 1.8965
lfemur -56.3233 -9.22501 -8.02426
ltibia 25.7719
lfoot -8.54216 1.64168
ltoes -37.459
574
root 16.3168 15.6392 -20.5273 -331.845 15.5043 2.28024
lowerback -15.7714 0.144278 -0.672725
upperback -5.24582 0.429276 -2.00374
thorax 3.28037 0.225361 -1.64478
lowerneck -13.0372 -12.0914 -7.16672
upperneck 15.3313 -16.453 7.36674
head 8.09182 -7.6156 1.63681
rclavicle 4.35835e-014 7.55382e-015
rhumerus -34.4269 35.9515 -101.674
rradius 81.4885
rwrist -10.3679
rhand -10.9606 -8.7457
rfingers 7.12502
rthumb 15.0584 -38.178
lclavicle 4.35835e-014 7.55382e-015
lhumerus -56.8069 -7.86928 78.4803
lradius 19.763
lwrist 40.3745
lhand -21.1923 -4.81047
lfingers 7.12502
lthumb 5.18866 25.106
rfemur -23.1698 28.8572 17.8933
rtibia 38.0295
rfoot -18.0435 6.51066
rtoes 2.13186
lfemur -55.961 -8.81965 -8.6028
ltibia 26.5686
lfoot -7.86715 -0.45949
ltoes -37.1826
575
root 16.3953 15.6002 -20.3693 -332.178 15.1939 2.04301
lowerback -15.7151 -0.0445821 -1.0728
upperback -5.16826 0.249755 -2.22562
thorax 3.32685 0.135874 -1.68457
lowerneck -13.2437 -11.9575 -7.00601
upperneck 15.7717 -16.3879 7.63878
head 8.28223 -7.53291 1.68635
rclavicle -1.32192e-014 1.03368e-014
rhumerus -35.0843 35.4049 -101.617
rradius 81.5437
rwrist -12.7245
rhand -11.7464 -10.0521
rfingers 7.12502
rthumb 14.3013 -39.5396
lclavicle -1.32192e-014 1.03368e-014
lhumerus -56.48 -8.36723 78.4525
lradius 19.515
lwrist 40.9837
lhand -21.8174 -4.53597
lfingers 7.12502
lthumb 4.58507 25.3944
rfemur -22.7458 28.1942 18.4273
rtibia 39.0239
rfoot -17.1366 7.83846
rtoes 2.62079
lfemur -55.6569 -8.51608 -9.05548
ltibia 27.6602
lfoot -7.29939 -2.32975
ltoes -36.1682
576
root 16.4731 15.5654 -20.2134 -332.549 14.945 1.80938
lowerback -15.5589 -0.251786 -1.46503
upperback -5.13576 0.0411136 -2.45422
thorax 3.27259 0.0319442 -1.74029
lowerneck -13.2428 -11.8028 -6.79928
upperneck 16.1282 -16.3186 7.94751
head 8.40825 -7.45051 1.75682
rclavicle 1.47101e-014 1.82882e-014
rhumerus -35.8661 34.7721 -101.628
rradius 81.4617
rwrist -15.1454
rhand -12.6945 -11.1647
rfingers 7.12502
rthumb 13.3877 -40.7146
lclavicle 1.47101e-014 1.82882e-014
lhumerus -56.2051 -8.98549 78.5114
lradius 19.2457
lwrist 41.2651
lhand -22.4678 -4.32316
lfingers 7.12502
lthumb 3.95705 25.6198
rfemur -22.4458 27.3817 18.9768
rtibia 40.2394
rfoot -15.8493 9.25833
rtoes 3.46027
lfemur -55.3937 -8.31429 -9.42989
ltibia 28.9932
lfoot -7.00818 -3.76688
ltoes -34.6337
